<?xml version="1.0" standalone="no"?>
<!DOCTYPE svg PUBLIC "-//W3C//DTD SVG 20010904//EN"
 "http://www.w3.org/TR/2001/REC-SVG-20010904/DTD/svg10.dtd">
<svg version="1.0" xmlns="http://www.w3.org/2000/svg"
 width="227.000000pt" height="213.000000pt" viewBox="0 0 227.000000 213.000000"
 preserveAspectRatio="xMidYMid meet">

<g transform="translate(0.000000,213.000000) scale(0.100000,-0.100000)"
fill="#000000" stroke="none">
<path d="M985 1892 c-53 -5 -103 -33 -129 -73 -25 -37 -26 -41 -28 -261 l-3
-223 -70 -5 c-53 -4 -63 -7 -41 -11 28 -7 98 -3 124 6 9 3 12 58 12 227 0 203
2 226 20 255 40 66 51 68 284 65 115 -2 216 -7 225 -13 12 -7 7 -9 -19 -7 -46
3 -63 -9 -57 -38 2 -13 0 -24 -4 -24 -5 0 -9 -9 -9 -21 0 -11 -8 -33 -18 -47
-10 -15 -24 -42 -31 -59 -8 -18 -18 -33 -23 -33 -5 0 -7 -4 -3 -9 3 -6 -2 -14
-12 -20 -17 -9 -17 -10 0 -28 21 -24 22 -71 1 -101 -26 -37 -27 -422 -1 -422
5 0 31 16 57 35 106 78 119 205 26 249 -19 9 -43 16 -55 16 -17 0 -21 6 -21
30 0 26 4 30 28 30 15 0 52 -12 80 -26 133 -66 138 -239 9 -336 -19 -16 -40
-28 -46 -28 -20 0 -11 -25 18 -53 36 -33 55 -87 47 -130 -6 -33 -46 -83 -81
-103 -18 -10 -18 -12 -2 -52 28 -70 23 -89 -37 -149 -55 -55 -77 -98 -53 -106
9 -3 9 -9 1 -23 -15 -26 -34 -29 -34 -6 0 31 -11 53 -23 45 -7 -4 -8 2 -3 18
20 64 19 64 -24 84 -44 20 -90 83 -90 123 0 26 33 62 56 62 13 0 15 -7 9 -37
-5 -32 -1 -43 24 -73 16 -19 31 -33 34 -30 2 3 7 31 9 62 4 56 4 57 -25 68
-42 14 -133 85 -139 107 -12 49 37 117 116 160 17 10 11 15 -51 47 -53 26 -72
32 -76 22 -3 -7 -24 -16 -47 -20 -34 -5 -40 -10 -36 -24 4 -11 -2 -27 -14 -40
-11 -11 -20 -30 -20 -41 0 -11 -9 -25 -20 -31 -11 -6 -23 -22 -26 -35 -3 -14
-19 -33 -34 -42 -16 -9 -26 -22 -23 -28 3 -10 -38 -14 -165 -20 -191 -8 -198
-6 -266 64 l-39 40 -5 145 c-4 122 -2 153 12 191 18 46 66 95 93 95 9 0 13 3
10 6 -14 15 -69 -21 -97 -65 l-31 -46 3 -160 c3 -158 3 -161 32 -203 16 -24
48 -54 71 -68 41 -23 47 -24 257 -24 l216 0 -5 -198 c-6 -216 0 -261 43 -312
47 -55 64 -59 277 -61 230 -2 251 4 302 86 l30 48 3 219 3 218 218 0 219 0 48
33 c73 49 95 100 102 236 5 125 -6 189 -44 239 -50 65 -55 67 -309 72 -229 5
-230 5 -227 27 2 12 -2 24 -8 28 -6 4 -10 74 -10 193 0 213 -10 252 -71 290
-30 18 -53 21 -209 24 -96 1 -188 2 -205 0z"/>
<path d="M1560 1822 c0 -5 5 -23 11 -39 5 -17 11 -102 12 -189 l2 -159 35 3
c114 9 126 18 94 67 -8 13 -14 34 -12 46 3 20 7 18 45 -22 23 -24 51 -55 61
-69 11 -14 24 -22 28 -18 9 10 -24 56 -108 153 -88 102 -91 127 -8 85 46 -23
50 -24 50 -7 0 13 -50 56 -120 104 -61 41 -90 55 -90 45z"/>
<path d="M664 1656 c-56 -38 -156 -142 -179 -187 -23 -43 -2 -36 23 9 29 51
97 121 157 162 62 41 59 39 54 45 -3 2 -27 -11 -55 -29z"/>
<path d="M1101 1369 c-1 -23 -7 -28 -38 -34 -60 -11 -91 -32 -98 -65 -14 -64
28 -125 116 -171 l39 -19 -1 132 c-1 73 -5 144 -9 158 l-8 25 -1 -26z"/>
<path d="M1097 963 c-8 -16 -22 -42 -33 -59 -22 -38 -11 -72 31 -100 39 -25
46 -10 36 81 -5 44 -7 83 -5 87 2 3 0 9 -5 12 -5 4 -16 -6 -24 -21z"/>
<path d="M1180 866 c0 -117 12 -134 59 -81 23 27 31 45 31 75 0 33 -6 43 -39
69 -21 17 -42 31 -45 31 -3 0 -6 -42 -6 -94z"/>
<path d="M1170 641 c0 -84 18 -104 45 -51 20 38 19 63 -3 83 -32 29 -42 21
-42 -32z"/>
<path d="M1960 664 c-24 -9 -90 -13 -207 -13 l-173 -1 0 -163 c0 -89 -4 -177
-9 -195 -9 -31 -9 -32 19 -32 30 0 124 59 211 131 80 67 169 184 199 264 11
28 9 28 -40 9z m-106 -119 c21 -16 19 -21 -36 -87 -38 -46 -94 -88 -117 -88
-6 0 -11 11 -11 24 0 15 23 49 66 95 36 39 69 71 72 71 4 0 15 -7 26 -15z"/>
<path d="M330 657 c0 -40 159 -236 235 -290 l30 -22 -19 30 c-10 17 -30 41
-43 54 -27 25 -83 109 -83 123 0 22 50 3 90 -35 47 -45 164 -137 174 -137 17
0 2 20 -31 42 -43 29 -123 106 -123 119 0 5 22 8 50 7 40 -2 50 -6 52 -22 2
-11 9 -21 16 -24 7 -2 10 2 6 11 -3 8 -1 18 5 22 6 3 11 -1 11 -11 0 -11 3
-14 9 -8 5 5 12 40 16 78 7 60 6 68 -8 63 -30 -11 -333 -10 -355 2 -27 14 -32
14 -32 -2z"/>
</g>
</svg>
